
    <svg width="300" height="220" viewBox="0 0 300 220" xmlns="http://www.w3.org/2000/svg">
      <style>
        .header { font: 600 18px 'Segoe UI', Ubuntu, Sans-Serif; fill: #0891b2; }
        .bg { fill: #1c1917; }
      </style>
      <rect x="0.5" y="0.5" rx="4.5" width="299" height="219" class="bg" />
      <text x="25" y="25" class="header">Most Used Languages</text>
      
        <g transform="translate(25, 40)">
            <text x="0" y="10" style="font: 600 14px 'Segoe UI', Ubuntu, Sans-Serif; fill: #ffffff;">Jupyter Notebook</text>
            <text x="220" y="10" style="font: 400 14px 'Segoe UI', Ubuntu, Sans-Serif; fill: #9ca3af;">69.9%</text>
            <rect x="0" y="20" width="104.84883957849567" height="8" rx="4" fill="#DA5B0B" />
        </g>
        
        <g transform="translate(25, 75)">
            <text x="0" y="10" style="font: 600 14px 'Segoe UI', Ubuntu, Sans-Serif; fill: #ffffff;">TypeScript</text>
            <text x="220" y="10" style="font: 400 14px 'Segoe UI', Ubuntu, Sans-Serif; fill: #9ca3af;">12.3%</text>
            <rect x="0" y="20" width="18.406134127464522" height="8" rx="4" fill="#3178c6" />
        </g>
        
        <g transform="translate(25, 110)">
            <text x="0" y="10" style="font: 600 14px 'Segoe UI', Ubuntu, Sans-Serif; fill: #ffffff;">HTML</text>
            <text x="220" y="10" style="font: 400 14px 'Segoe UI', Ubuntu, Sans-Serif; fill: #9ca3af;">10.2%</text>
            <rect x="0" y="20" width="15.347794665306628" height="8" rx="4" fill="#e34c26" />
        </g>
        
        <g transform="translate(25, 145)">
            <text x="0" y="10" style="font: 600 14px 'Segoe UI', Ubuntu, Sans-Serif; fill: #ffffff;">Python</text>
            <text x="220" y="10" style="font: 400 14px 'Segoe UI', Ubuntu, Sans-Serif; fill: #9ca3af;">3.6%</text>
            <rect x="0" y="20" width="5.349181360603305" height="8" rx="4" fill="#3572A5" />
        </g>
        
        <g transform="translate(25, 180)">
            <text x="0" y="10" style="font: 600 14px 'Segoe UI', Ubuntu, Sans-Serif; fill: #ffffff;">CSS</text>
            <text x="220" y="10" style="font: 400 14px 'Segoe UI', Ubuntu, Sans-Serif; fill: #9ca3af;">1.3%</text>
            <rect x="0" y="20" width="1.9266429680724042" height="8" rx="4" fill="#663399" />
        </g>
        
    </svg>
    